<svg width="19" height="15" viewBox="0 0 19 15" fill="none" xmlns="http://www.w3.org/2000/svg">
<path d="M10.25 10.3189C11.2297 9.70871 11.9841 8.79599 12.3989 7.71885C12.8137 6.64171 12.8665 5.45877 12.5491 4.34899C12.2318 3.23921 11.5616 2.26298 10.6401 1.56799C9.71848 0.873002 8.59562 0.49707 7.44136 0.49707C6.2871 0.49707 5.16424 0.873002 4.24267 1.56799C3.32109 2.26298 2.65093 3.23921 2.33359 4.34899C2.01624 5.45877 2.06898 6.64171 2.48381 7.71885C2.89864 8.79599 3.653 9.70871 4.63277 10.3189C3.01949 10.8471 1.56792 11.8338 0.400736 13.2229C0.346049 13.2854 0.304377 13.3582 0.278159 13.437C0.25194 13.5159 0.2417 13.5991 0.248037 13.682C0.254374 13.7648 0.277162 13.8455 0.315067 13.9195C0.352973 13.9934 0.405235 14.059 0.468799 14.1125C0.532364 14.166 0.605954 14.2063 0.685267 14.231C0.764581 14.2557 0.848026 14.2643 0.930724 14.2564C1.01342 14.2485 1.09371 14.2242 1.1669 14.1849C1.24009 14.1456 1.30471 14.0921 1.35699 14.0275C2.92574 12.1557 5.08667 11.1252 7.43745 11.1252C9.78824 11.1252 11.9492 12.1557 13.521 14.0275C13.6278 14.1546 13.7806 14.234 13.9458 14.2483C14.1111 14.2627 14.2753 14.2108 14.4023 14.1041C14.5293 13.9974 14.6087 13.8446 14.6231 13.6793C14.6375 13.5141 14.5856 13.3499 14.4789 13.2229C13.3109 11.8338 11.8593 10.8471 10.25 10.3189ZM3.37495 5.81269C3.37495 5.00921 3.61322 4.22377 4.05961 3.55569C4.506 2.88762 5.14048 2.36691 5.8828 2.05943C6.62513 1.75195 7.44196 1.6715 8.23001 1.82825C9.01806 1.98501 9.74193 2.37192 10.3101 2.94007C10.8782 3.50822 11.2651 4.23209 11.4219 5.02014C11.5786 5.80819 11.4982 6.62502 11.1907 7.36735C10.8832 8.10967 10.3625 8.74415 9.69446 9.19054C9.02638 9.63693 8.24094 9.87519 7.43745 9.87519C6.36039 9.87395 5.3278 9.44554 4.5662 8.68395C3.80461 7.92235 3.3762 6.88976 3.37495 5.81269ZM18.082 9.17754L17.7179 8.96738C17.7606 8.74126 17.7606 8.50913 17.7179 8.28301L18.082 8.07285C18.2256 7.98997 18.3304 7.85344 18.3733 7.69331C18.4162 7.53317 18.3938 7.36253 18.3109 7.21894C18.228 7.07536 18.0915 6.97057 17.9313 6.92764C17.7712 6.88471 17.6006 6.90716 17.457 6.99004L17.0921 7.20098C16.9175 7.05118 16.7168 6.9349 16.5 6.85801V6.43769C16.5 6.27193 16.4341 6.11296 16.3169 5.99575C16.1997 5.87854 16.0407 5.81269 15.875 5.81269C15.7092 5.81269 15.5502 5.87854 15.433 5.99575C15.3158 6.11296 15.25 6.27193 15.25 6.43769V6.85801C15.0331 6.9349 14.8324 7.05118 14.6578 7.20098L14.2929 6.99004C14.2218 6.949 14.1433 6.92237 14.0619 6.91166C13.9806 6.90096 13.8979 6.90639 13.8186 6.92764C13.7393 6.9489 13.6649 6.98556 13.5998 7.03555C13.5347 7.08553 13.4801 7.14785 13.439 7.21894C13.398 7.29004 13.3713 7.36853 13.3606 7.44992C13.3499 7.53131 13.3554 7.61401 13.3766 7.69331C13.3979 7.7726 13.4345 7.84693 13.4845 7.91205C13.5345 7.97717 13.5968 8.03181 13.6679 8.07285L14.032 8.28301C13.9893 8.50913 13.9893 8.74126 14.032 8.96738L13.6679 9.17754C13.5243 9.26042 13.4195 9.39694 13.3766 9.55708C13.3337 9.71722 13.3561 9.88785 13.439 10.0314C13.5219 10.175 13.6584 10.2798 13.8186 10.3227C13.9787 10.3657 14.1493 10.3432 14.2929 10.2604L14.6578 10.0494C14.8324 10.1992 15.0331 10.3155 15.25 10.3924V10.8127C15.25 10.9785 15.3158 11.1374 15.433 11.2546C15.5502 11.3718 15.7092 11.4377 15.875 11.4377C16.0407 11.4377 16.1997 11.3718 16.3169 11.2546C16.4341 11.1374 16.5 10.9785 16.5 10.8127V10.3924C16.7168 10.3155 16.9175 10.1992 17.0921 10.0494L17.457 10.2604C17.5519 10.3154 17.6597 10.3443 17.7695 10.3439C17.9071 10.344 18.0409 10.2986 18.1501 10.2149C18.2593 10.1311 18.3378 10.0136 18.3734 9.88069C18.4091 9.74775 18.3998 9.60677 18.3471 9.47963C18.2944 9.35249 18.2012 9.2463 18.082 9.17754ZM15.25 8.62519C15.25 8.50158 15.2866 8.38074 15.3553 8.27796C15.424 8.17518 15.5216 8.09507 15.6358 8.04777C15.75 8.00047 15.8756 7.98809 15.9969 8.0122C16.1181 8.03632 16.2295 8.09584 16.3169 8.18325C16.4043 8.27066 16.4638 8.38202 16.4879 8.50326C16.5121 8.6245 16.4997 8.75017 16.4524 8.86437C16.4051 8.97858 16.325 9.07619 16.2222 9.14486C16.1194 9.21354 15.9986 9.25019 15.875 9.25019C15.7092 9.25019 15.5502 9.18435 15.433 9.06714C15.3158 8.94993 15.25 8.79096 15.25 8.62519Z" fill="#1D1D1D"/>
</svg>
