<svg width="16" height="18" viewBox="0 0 16 18" fill="none" xmlns="http://www.w3.org/2000/svg">
<path d="M15.0456 12.0387L14.1239 10.5004C13.7939 9.95037 13.6206 9.32113 13.6206 8.6803V6.49117C13.6206 3.3945 11.0989 0.874512 7.99975 0.874512C4.90058 0.874512 2.37891 3.39367 2.37891 6.49117V8.6803C2.37891 9.32113 2.20474 9.95037 1.87557 10.5004L0.953915 12.0387C0.633082 12.5728 0.625581 13.2161 0.932247 13.7578C1.23975 14.3011 1.79557 14.6253 2.41974 14.6253H5.73641C5.72975 14.6953 5.70891 14.7628 5.70891 14.8337C5.70891 16.0978 6.73641 17.1253 8.00058 17.1253C9.26474 17.1253 10.2922 16.0978 10.2922 14.8337C10.2922 14.7628 10.2714 14.6953 10.2647 14.6253H13.5814C14.2056 14.6253 14.7622 14.3011 15.0689 13.7586C15.3747 13.2161 15.3664 12.5728 15.0456 12.0387ZM9.04058 14.8337C9.04058 15.4078 8.57308 15.8753 7.99891 15.8753C7.42474 15.8753 6.95724 15.4078 6.95724 14.8337C6.95724 14.7628 6.97058 14.6937 6.98475 14.6253H9.01307C9.02724 14.6937 9.04058 14.7628 9.04058 14.8337ZM13.9797 13.142C13.9397 13.212 13.8222 13.3745 13.5797 13.3745H2.41807C2.17641 13.3745 2.05808 13.212 2.01808 13.142C1.97891 13.072 1.89975 12.8878 2.02391 12.6812L2.94558 11.1429C3.39225 10.3987 3.62724 9.54696 3.62724 8.6803V6.49117C3.62724 4.08367 5.58807 2.12451 7.99807 2.12451C10.4081 2.12451 12.3689 4.08367 12.3689 6.49117V8.6803C12.3689 9.54696 12.6047 10.3987 13.0506 11.1429L13.9722 12.6812C14.0972 12.8878 14.0189 13.072 13.9797 13.142Z" fill="#1D1D1D"/>
</svg>
