<svg width="25" height="24" viewBox="0 0 25 24" fill="none" xmlns="http://www.w3.org/2000/svg">
<g clip-path="url(#clip0_36_3388)">
<path d="M14.9439 0.931641C10.1239 0.931641 6.21387 4.65164 6.21387 9.22164V9.63164C6.22387 9.84164 6.41387 9.99164 6.63387 9.98164C6.85387 9.97164 7.02387 9.79164 7.00387 9.58164C7.00387 9.46164 7.00387 9.34164 7.00387 9.23164C7.00387 5.07164 10.5639 1.69164 14.9439 1.69164C19.3239 1.69164 22.8739 5.07164 22.8739 9.23164C22.8739 13.7516 16.4139 21.0216 14.9439 22.6116L14.5439 22.1716C14.4039 22.0116 14.1539 22.0016 13.9839 22.1316C13.8239 22.2716 13.8039 22.5016 13.9439 22.6616C14.3839 23.1516 14.6539 23.4216 14.6539 23.4216C14.7239 23.5016 14.8339 23.5416 14.9439 23.5416C15.0539 23.5416 15.1639 23.5016 15.2339 23.4216C15.5839 23.0716 23.6739 14.6116 23.6739 9.22164C23.6739 4.65164 19.7639 0.931641 14.9439 0.931641Z" fill="#484C52"/>
<path d="M6.21387 9.22164V9.63164C6.22387 9.84164 6.41387 9.99164 6.63387 9.98164C6.85387 9.97164 7.02387 9.79164 7.00387 9.58164C7.00387 9.46164 7.00387 9.34164 7.00387 9.23164C7.00387 5.07164 10.5639 1.69164 14.9439 1.69164C19.3239 1.69164 22.8739 5.07164 22.8739 9.23164C22.8739 13.7516 16.4139 21.0216 14.9439 22.6116L14.5439 22.1716C14.4039 22.0116 14.1539 22.0016 13.9839 22.1316C13.8239 22.2716 13.8039 22.5016 13.9439 22.6616C14.3839 23.1516 14.6539 23.4216 14.6539 23.4216C14.7239 23.5016 14.8339 23.5416 14.9439 23.5416C15.0539 23.5416 15.1639 23.5016 15.2339 23.4216C15.5839 23.0716 23.6739 14.6116 23.6739 9.22164C23.6739 4.65164 19.7639 0.931641 14.9439 0.931641C10.1239 0.931641 6.21387 4.65164 6.21387 9.22164Z" stroke="#484C52" stroke-width="0.9"/>
<path d="M15.374 11.4912C16.884 11.4912 18.114 10.2612 18.114 8.74121C18.114 7.22121 16.884 5.99121 15.374 5.99121C13.854 5.99121 12.624 7.22121 12.624 8.74121C12.624 10.2612 13.854 11.4912 15.374 11.4912ZM15.374 6.68121C16.504 6.68121 17.434 7.60121 17.434 8.74121C17.434 9.88121 16.504 10.8012 15.374 10.8012C14.234 10.8012 13.304 9.88121 13.304 8.74121C13.304 7.60121 14.234 6.68121 15.374 6.68121Z" fill="#484C52"/>
<path d="M18.114 8.74121C18.114 7.22121 16.884 5.99121 15.374 5.99121C13.854 5.99121 12.624 7.22121 12.624 8.74121C12.624 10.2612 13.854 11.4912 15.374 11.4912C16.884 11.4912 18.114 10.2612 18.114 8.74121ZM17.434 8.74121C17.434 9.88121 16.504 10.8012 15.374 10.8012C14.234 10.8012 13.304 9.88121 13.304 8.74121C13.304 7.60121 14.234 6.68121 15.374 6.68121C16.504 6.68121 17.434 7.60121 17.434 8.74121Z" stroke="#484C52" stroke-width="0.9"/>
<path d="M11.6339 15.1116L7.65387 12.2116C6.99387 11.7316 6.11387 11.7316 5.46387 12.2116L1.48387 15.1116C1.00387 15.4616 0.723867 16.0216 0.713867 16.6216V21.6916C0.723867 22.7116 1.55387 23.5416 2.57387 23.5416H4.08387C4.69387 23.5416 5.18387 23.0516 5.18387 22.4416V19.8416C5.18387 19.6116 5.37387 19.4216 5.60387 19.4216H7.52387C7.74387 19.4216 7.93387 19.6116 7.93387 19.8416V22.4416C7.93387 23.0516 8.42387 23.5416 9.03387 23.5416H10.5339C11.5639 23.5416 12.3939 22.7116 12.3939 21.6916V16.6216C12.3939 16.0216 12.1139 15.4616 11.6339 15.1116ZM11.7139 21.6916C11.7039 22.3316 11.1839 22.8616 10.5339 22.8616H9.03387C8.80387 22.8616 8.61387 22.6716 8.61387 22.4416V19.8416C8.61387 19.2316 8.12387 18.7416 7.52387 18.7416H5.60387C4.99387 18.7416 4.49387 19.2316 4.49387 19.8416V22.4416C4.49387 22.6716 4.31387 22.8616 4.08387 22.8616H2.57387C1.93387 22.8616 1.40387 22.3316 1.40387 21.6916V16.6216C1.40387 16.2416 1.58387 15.8916 1.89387 15.6716L5.87387 12.7816C6.28387 12.4816 6.83387 12.4816 7.24387 12.7816L11.2239 15.6716C11.5339 15.8916 11.7039 16.2416 11.7139 16.6216V21.6916Z" fill="#484C52"/>
<path d="M7.65387 12.2116C6.99387 11.7316 6.11387 11.7316 5.46387 12.2116L1.48387 15.1116C1.00387 15.4616 0.723867 16.0216 0.713867 16.6216V21.6916C0.723867 22.7116 1.55387 23.5416 2.57387 23.5416H4.08387C4.69387 23.5416 5.18387 23.0516 5.18387 22.4416V19.8416C5.18387 19.6116 5.37387 19.4216 5.60387 19.4216H7.52387C7.74387 19.4216 7.93387 19.6116 7.93387 19.8416V22.4416C7.93387 23.0516 8.42387 23.5416 9.03387 23.5416H10.5339C11.5639 23.5416 12.3939 22.7116 12.3939 21.6916V16.6216C12.3939 16.0216 12.1139 15.4616 11.6339 15.1116L7.65387 12.2116ZM10.5339 22.8616H9.03387C8.80387 22.8616 8.61387 22.6716 8.61387 22.4416V19.8416C8.61387 19.2316 8.12387 18.7416 7.52387 18.7416H5.60387C4.99387 18.7416 4.49387 19.2316 4.49387 19.8416V22.4416C4.49387 22.6716 4.31387 22.8616 4.08387 22.8616H2.57387C1.93387 22.8616 1.40387 22.3316 1.40387 21.6916V16.6216C1.40387 16.2416 1.58387 15.8916 1.89387 15.6716L5.87387 12.7816C6.28387 12.4816 6.83387 12.4816 7.24387 12.7816L11.2239 15.6716C11.5339 15.8916 11.7039 16.2416 11.7139 16.6216V21.6916C11.7039 22.3316 11.1839 22.8616 10.5339 22.8616Z" stroke="#484C52" stroke-width="0.9"/>
</g>
<defs>
<clipPath id="clip0_36_3388">
<rect width="23.8523" height="23.5088" fill="white" transform="translate(0.273926 0.491211)"/>
</clipPath>
</defs>
</svg>
