<svg width="18" height="19" viewBox="0 0 18 19" fill="none" xmlns="http://www.w3.org/2000/svg">
<g clip-path="url(#clip0_36_3409)">
<path d="M9 14.3635L12.1823 11.182C12.8115 10.5527 13.24 9.75084 13.4136 8.87795C13.5872 8.00505 13.498 7.10029 13.1574 6.27807C12.8168 5.45585 12.24 4.75309 11.5 4.25865C10.76 3.76422 9.88999 3.50032 9 3.50032C8.11002 3.50032 7.24002 3.76422 6.50002 4.25865C5.76001 4.75309 5.18323 5.45585 4.84262 6.27807C4.502 7.10029 4.41284 8.00505 4.58641 8.87795C4.75998 9.75084 5.18849 10.5527 5.81775 11.182L9 14.3635ZM13.2428 12.2425L9 16.4853L4.75725 12.2425C3.91817 11.4034 3.34675 10.3343 3.11527 9.17043C2.88378 8.00655 3.00262 6.80017 3.45676 5.70383C3.91089 4.60749 4.67993 3.67044 5.66661 3.01116C6.6533 2.35189 7.81333 2 9 2C10.1867 2 11.3467 2.35189 12.3334 3.01116C13.3201 3.67044 14.0891 4.60749 14.5433 5.70383C14.9974 6.80017 15.1162 8.00655 14.8847 9.17043C14.6533 10.3343 14.0818 11.4034 13.2428 12.2425ZM3.75 16.9998H14.25V18.4998H3.75V16.9998Z" fill="#4FAF5A"/>
</g>
<defs>
<clipPath id="clip0_36_3409">
<rect width="18" height="18" fill="white" transform="translate(0 0.5)"/>
</clipPath>
</defs>
</svg>
